# xmcd CD database file
#
# Track frame offsets:
#	150
#	13575
#	28720
#	41540
#	54513
#	69361
#	86085
#	109031
#	121556
#	132730
#	142177
#	153950
#
# Disc length: 2180 seconds
#
# Revision: 1
# Processed by: cddbd v1.5.1PL0 Copyright (c) Steve Scherf et al.
# Submitted via: CDex 1.51
#
DISCID=9e08820c
DTITLE=that'swhatfriendsarefor (V.A) - that'swhatfriendsarefor
DYEAR=1900
DGENRE=Jazz
TTITLE0=madeline bell - that's what friends are for
TTITLE1=deirdre wilson tabac - i can't keep from crying sometimes
TTITLE2=france gall - zozoi
TTITLE3=wess and the airedales - block out
TTITLE4=byrdie green return of the prodigal son
TTITLE5=lee mason - shady blues
TTITLE6=nina simone - funkier than a mosquito's tweeter
TTITLE7=kent schneider - the church is within us, oh lord
TTITLE8=mark murphy - why don't you do right
TTITLE9=irp-3 - tema de soninha
TTITLE10=gorden beck - the hustler
TTITLE11=nino nordini - poltergeist
EXTD=
EXTT0=
EXTT1=
EXTT2=
EXTT3=
EXTT4=
EXTT5=
EXTT6=
EXTT7=
EXTT8=
EXTT9=
EXTT10=
EXTT11=
PLAYORDER=
